# xmcd
#
# Track frame offsets: 
#        150
#        18938
#        36861
#        65890
#        83444
#        99657
#        123966
#        149532
#        167646
#        200776
#        228874
#
# Disc length: 3480 seconds
#
# Revision: 0
# Processed by: cddbd v1.5.2PL0 Copyright (c) Steve Scherf et al.
# Submitted via: ExactAudioCopy v1.3
#
DISCID=920d960b
DTITLE=ORBO and The Longshots - Live 10
DYEAR=2010
DGENRE=Blues
TTITLE0=Jet Black
TTITLE1=Blue Rose Hill
TTITLE2=Voodoo Lounge
TTITLE3=She's My Baby
TTITLE4=Rock and Roll City
TTITLE5=Dance With You
TTITLE6=Masquerade
TTITLE7=Forget What I Said
TTITLE8=Dead Man Walking
TTITLE9=Sin City
TTITLE10=Horse To The Water
EXTD=
EXTT0=
EXTT1=
EXTT2=
EXTT3=
EXTT4=
EXTT5=
EXTT6=
EXTT7=
EXTT8=
EXTT9=
EXTT10=
PLAYORDER=
